<svg xmlns="http://www.w3.org/2000/svg" width="106.667" height="80" viewBox="0 0 106.667 80">
  <path id="Icon_material-more" data-name="Icon material-more" d="M97.778,4.5H31.111a8.365,8.365,0,0,0-7.067,3.911L0,44.5,24.044,80.544A8.953,8.953,0,0,0,31.422,84.5H97.778a8.915,8.915,0,0,0,8.889-8.889V13.389A8.915,8.915,0,0,0,97.778,4.5ZM40,51.167A6.667,6.667,0,1,1,46.667,44.5,6.658,6.658,0,0,1,40,51.167Zm22.222,0A6.667,6.667,0,1,1,68.889,44.5,6.658,6.658,0,0,1,62.222,51.167Zm22.222,0A6.667,6.667,0,1,1,91.111,44.5,6.658,6.658,0,0,1,84.444,51.167Z" transform="translate(0 -4.5)"/>
</svg>
