<svg xmlns="http://www.w3.org/2000/svg" width="74.199" height="51.939" viewBox="0 0 74.199 51.939">
  <path id="Icon_material-supervisor-account" data-name="Icon material-supervisor-account" d="M56.794,33.47a9.275,9.275,0,1,0-9.275-9.275A9.247,9.247,0,0,0,56.794,33.47ZM28.97,29.76A11.13,11.13,0,1,0,17.84,18.63,11.083,11.083,0,0,0,28.97,29.76ZM56.794,40.89c-6.789,0-20.4,3.413-20.4,10.2v8.347H77.2V51.092C77.2,44.3,63.583,40.89,56.794,40.89ZM28.97,37.18C20.325,37.18,3,41.52,3,50.164v9.275H28.97V51.092c0-3.153,1.224-8.681,8.793-12.874A45.57,45.57,0,0,0,28.97,37.18Z" transform="translate(-3 -7.5)" fill="#fff"/>
</svg>
