<svg xmlns="http://www.w3.org/2000/svg" width="75.008" height="75.008" viewBox="0 0 75.008 75.008">
  <g id="Icon_ionic-ios-save" data-name="Icon ionic-ios-save" transform="translate(-4.5 -4.5)">
    <path id="Path_4" data-name="Path 4" d="M22.125,4.5H19a1.567,1.567,0,0,0-1.563,1.563V20.127c0,.859,1.485,1.563,2.344,1.563h2.344a1.567,1.567,0,0,0,1.563-1.563V6.063A1.567,1.567,0,0,0,22.125,4.5Z" transform="translate(23.004)"/>
    <path id="Path_5" data-name="Path 5" d="M76.754,17.412,66.616,7.274A9.452,9.452,0,0,0,59.955,4.5H54.486A3.156,3.156,0,0,0,51.36,7.664V23.291a3.135,3.135,0,0,1-3.125,3.125H23.252a3.135,3.135,0,0,1-3.125-3.125V7.664A3.168,3.168,0,0,0,17,4.5H10.751A6.269,6.269,0,0,0,4.5,10.751V73.257a6.269,6.269,0,0,0,6.251,6.251H73.257a6.269,6.269,0,0,0,6.251-6.251V24.033A9.376,9.376,0,0,0,76.754,17.412ZM54.9,70.151a3.324,3.324,0,0,1-3.477,3.125H20.088a3.324,3.324,0,0,1-3.477-3.125V51.4a3.324,3.324,0,0,1,3.477-3.125H51.419A3.324,3.324,0,0,1,54.9,51.4V70.151Z" transform="translate(0 0)"/>
  </g>
</svg>
