<svg xmlns="http://www.w3.org/2000/svg" width="433.165" height="79.673" viewBox="0 0 433.165 79.673">
  <g id="stars" transform="translate(-1239 -1294)">
    <path id="Icon_material-stars" data-name="Icon material-stars" d="M39.8,3A36.836,36.836,0,1,0,76.673,39.836,36.818,36.818,0,0,0,39.8,3ZM55.418,61.938,39.836,52.545,24.255,61.938,28.38,44.22l-13.74-11.9,18.123-1.547,7.073-16.724,7.073,16.687,18.123,1.547-13.74,11.9,4.126,17.755Z" transform="translate(1236 1294)"/>
    <path id="Icon_material-stars-2" data-name="Icon material-stars" d="M39.8,3A36.836,36.836,0,1,0,76.673,39.836,36.818,36.818,0,0,0,39.8,3ZM55.418,61.938,39.836,52.545,24.255,61.938,28.38,44.22l-13.74-11.9,18.123-1.547,7.073-16.724,7.073,16.687,18.123,1.547-13.74,11.9,4.126,17.755Z" transform="translate(1325.123 1294)"/>
    <path id="Icon_material-stars-3" data-name="Icon material-stars" d="M39.8,3A36.836,36.836,0,1,0,76.673,39.836,36.818,36.818,0,0,0,39.8,3ZM55.418,61.938,39.836,52.545,24.255,61.938,28.38,44.22l-13.74-11.9,18.123-1.547,7.073-16.724,7.073,16.687,18.123,1.547-13.74,11.9,4.126,17.755Z" transform="translate(1414.246 1294)"/>
    <path id="Icon_material-stars-4" data-name="Icon material-stars" d="M39.8,3A36.836,36.836,0,1,0,76.673,39.836,36.818,36.818,0,0,0,39.8,3ZM55.418,61.938,39.836,52.545,24.255,61.938,28.38,44.22l-13.74-11.9,18.123-1.547,7.073-16.724,7.073,16.687,18.123,1.547-13.74,11.9,4.126,17.755Z" transform="translate(1503.369 1294)"/>
    <path id="Icon_material-stars-5" data-name="Icon material-stars" d="M39.8,3A36.836,36.836,0,1,0,76.673,39.836,36.818,36.818,0,0,0,39.8,3ZM55.418,61.938,39.836,52.545,24.255,61.938,28.38,44.22l-13.74-11.9,18.123-1.547,7.073-16.724,7.073,16.687,18.123,1.547-13.74,11.9,4.126,17.755Z" transform="translate(1592.492 1294)" fill="#fff" stroke="#000" stroke-width="6" opacity="0.3"/>
  </g>
</svg>
